<svg width="70" height="70" viewBox="0 0 70 70" fill="none" xmlns="http://www.w3.org/2000/svg">
<path d="M35 1.3999C16.443 1.3999 1.40002 16.4429 1.40002 34.9999C1.40002 53.5569 16.443 68.5999 35 68.5999C53.557 68.5999 68.6 53.5569 68.6 34.9999C68.6 16.4429 53.557 1.3999 35 1.3999ZM26.775 48.9264H19.971V27.0304H26.775V48.9264ZM23.331 24.3424C21.182 24.3424 19.7925 22.8199 19.7925 20.9369C19.7925 19.0154 21.224 17.5384 23.4185 17.5384C25.613 17.5384 26.957 19.0154 26.999 20.9369C26.999 22.8199 25.613 24.3424 23.331 24.3424ZM51.625 48.9264H44.821V36.7919C44.821 33.9674 43.834 32.0494 41.3735 32.0494C39.494 32.0494 38.3775 33.3479 37.884 34.5974C37.702 35.0419 37.6565 35.6719 37.6565 36.2984V48.9229H30.849V34.0129C30.849 31.2794 30.7615 28.9939 30.6705 27.0269H36.582L36.8935 30.0684H37.03C37.926 28.6404 40.1205 26.5334 43.792 26.5334C48.2685 26.5334 51.625 29.5329 51.625 35.9799V48.9264Z" fill="black"/>
</svg>
