<svg width="70" height="70" viewBox="0 0 70 70" fill="none" xmlns="http://www.w3.org/2000/svg">
<path d="M34.9727 5.21582C18.0674 5.20899 4.375 18.8945 4.375 35.7861C4.375 49.1436 12.9404 60.498 24.8691 64.668C26.4756 65.0713 26.2295 63.9297 26.2295 63.1504V57.8525C16.9531 58.9395 16.5771 52.8008 15.9551 51.7754C14.6973 49.6289 11.7236 49.082 12.6123 48.0566C14.7246 46.9697 16.8779 48.3301 19.373 52.0147C21.1777 54.6875 24.6982 54.2363 26.4824 53.792C26.8721 52.1856 27.7061 50.75 28.8545 49.6357C19.2432 47.9131 15.2373 42.0479 15.2373 35.0752C15.2373 31.6914 16.3516 28.5811 18.5391 26.0723C17.1445 21.9365 18.6689 18.3955 18.874 17.8691C22.8457 17.5137 26.9746 20.7129 27.2959 20.9658C29.5518 20.3574 32.1289 20.0361 35.0137 20.0361C37.9121 20.0361 40.4961 20.3711 42.7725 20.9863C43.5449 20.3984 47.373 17.6504 51.0645 17.9854C51.2627 18.5117 52.7529 21.9707 51.4404 26.0518C53.6553 28.5674 54.7832 31.7051 54.7832 35.0957C54.7832 42.082 50.75 47.9541 41.1113 49.6494C41.9369 50.4613 42.5924 51.4296 43.0396 52.4977C43.4868 53.5657 43.7167 54.7122 43.7158 55.8701V63.5605C43.7705 64.1758 43.7158 64.7842 44.7412 64.7842C56.8477 60.7031 65.5635 49.2666 65.5635 35.793C65.5635 18.8945 51.8643 5.21582 34.9727 5.21582Z" fill="black"/>
</svg>
