<svg width="70" height="70" viewBox="0 0 70 70" fill="none" xmlns="http://www.w3.org/2000/svg">
<path d="M35 8.75C20.4167 8.75 8.75 20.4167 8.75 35C8.75 49.5833 20.4167 61.25 35 61.25C49.5833 61.25 61.25 49.5833 61.25 35C61.25 20.4167 49.5833 8.75 35 8.75ZM35 29.1667C38.2083 29.1667 40.8333 31.7917 40.8333 35C40.8333 38.2083 38.2083 40.8333 35 40.8333C31.7917 40.8333 29.1667 38.2083 29.1667 35C29.1667 31.7917 31.7917 29.1667 35 29.1667ZM43.1667 23.3333C43.1667 21.2917 44.9167 19.8333 46.6667 19.8333C48.4167 19.8333 50.1667 21.5833 50.1667 23.3333C50.1667 25.0833 48.7083 26.8333 46.6667 26.8333C44.625 26.8333 43.1667 25.375 43.1667 23.3333ZM35 55.4167C23.625 55.4167 14.5833 46.375 14.5833 35H23.3333C23.3333 41.4167 28.5833 46.6667 35 46.6667C41.4167 46.6667 46.6667 41.4167 46.6667 35H55.4167C55.4167 46.375 46.375 55.4167 35 55.4167Z" fill="black"/>
</svg>
