<svg width="35" height="35" viewBox="0 0 35 35" fill="none" xmlns="http://www.w3.org/2000/svg">
<g clip-path="url(#clip0_102_25)">
<path d="M17.5 0.699997C8.22151 0.699997 0.700012 8.2215 0.700012 17.5C0.700012 26.7785 8.22151 34.3 17.5 34.3C26.7785 34.3 34.3 26.7785 34.3 17.5C34.3 8.2215 26.7785 0.699997 17.5 0.699997ZM13.3875 24.4632H9.98551V13.5152H13.3875V24.4632ZM11.6655 12.1712C10.591 12.1712 9.89626 11.41 9.89626 10.4685C9.89626 9.50775 10.612 8.76925 11.7093 8.76925C12.8065 8.76925 13.4785 9.50775 13.4995 10.4685C13.4995 11.41 12.8065 12.1712 11.6655 12.1712ZM25.8125 24.4632H22.4105V18.396C22.4105 16.9837 21.917 16.0247 20.6868 16.0247C19.747 16.0247 19.1888 16.674 18.942 17.2987C18.851 17.521 18.8283 17.836 18.8283 18.1492V24.4615H15.4245V17.0065C15.4245 15.6397 15.3808 14.497 15.3353 13.5135H18.291L18.4468 15.0342H18.515C18.963 14.3202 20.0603 13.2667 21.896 13.2667C24.1343 13.2667 25.8125 14.7665 25.8125 17.99V24.4632Z" fill="white"/>
</g>
<defs>
<clipPath id="clip0_102_25">
<rect width="35" height="35" fill="white"/>
</clipPath>
</defs>
</svg>
