<svg width="35" height="35" viewBox="0 0 35 35" fill="none" xmlns="http://www.w3.org/2000/svg">
<path d="M17.5 4.375C10.2083 4.375 4.375 10.2083 4.375 17.5C4.375 24.7917 10.2083 30.625 17.5 30.625C24.7917 30.625 30.625 24.7917 30.625 17.5C30.625 10.2083 24.7917 4.375 17.5 4.375ZM17.5 14.5833C19.1042 14.5833 20.4167 15.8958 20.4167 17.5C20.4167 19.1042 19.1042 20.4167 17.5 20.4167C15.8958 20.4167 14.5833 19.1042 14.5833 17.5C14.5833 15.8958 15.8958 14.5833 17.5 14.5833ZM21.5833 11.6667C21.5833 10.6458 22.4583 9.91667 23.3333 9.91667C24.2083 9.91667 25.0833 10.7917 25.0833 11.6667C25.0833 12.5417 24.3542 13.4167 23.3333 13.4167C22.3125 13.4167 21.5833 12.6875 21.5833 11.6667ZM17.5 27.7083C11.8125 27.7083 7.29167 23.1875 7.29167 17.5H11.6667C11.6667 20.7083 14.2917 23.3333 17.5 23.3333C20.7083 23.3333 23.3333 20.7083 23.3333 17.5H27.7083C27.7083 23.1875 23.1875 27.7083 17.5 27.7083Z" fill="white"/>
</svg>
