<svg width="40" height="40" viewBox="0 0 40 40" fill="none" xmlns="http://www.w3.org/2000/svg">
<rect width="40" height="40" fill="#F5F5F5"/>
<g id="SKILLS">
<rect width="1388" height="620" transform="translate(-650 -453)" fill="#0E0E0F"/>
<g id="Rectangle 2">
<mask id="path-1-inside-1_0_1" fill="white">
<rect x="-104" y="-17" width="226" height="129" rx="1"/>
</mask>
<rect x="-104" y="-17" width="226" height="129" rx="1" stroke="white" stroke-width="4" mask="url(#path-1-inside-1_0_1)"/>
</g>
<g id="clarity:clock-line" clip-path="url(#clip0_0_1)">
<path id="Vector" d="M20 2.22223C16.4838 2.22223 13.0467 3.26488 10.1231 5.21832C7.19961 7.17177 4.92099 9.94828 3.57543 13.1967C2.22987 16.4452 1.87781 20.0197 2.56377 23.4683C3.24973 26.9168 4.9429 30.0845 7.42917 32.5708C9.91543 35.0571 13.0831 36.7502 16.5317 37.4362C19.9802 38.1222 23.5548 37.7701 26.8032 36.4245C30.0517 35.079 32.8282 32.8004 34.7816 29.8768C36.7351 26.9533 37.7777 23.5161 37.7777 20C37.7777 15.285 35.9047 10.7632 32.5707 7.42922C29.2368 4.09524 24.7149 2.22223 20 2.22223ZM20 35.5556C16.9234 35.5556 13.9158 34.6432 11.3578 32.934C8.79965 31.2247 6.80586 28.7953 5.62849 25.9529C4.45113 23.1105 4.14308 19.9828 4.74329 16.9653C5.34351 13.9478 6.82503 11.1761 9.00051 9.00057C11.176 6.82508 13.9477 5.34356 16.9652 4.74335C19.9827 4.14313 23.1104 4.45118 25.9528 5.62855C28.7952 6.80591 31.2247 8.79971 32.9339 11.3578C34.6432 13.9159 35.5555 16.9234 35.5555 20C35.5555 24.1256 33.9166 28.0822 30.9994 30.9994C28.0822 33.9167 24.1255 35.5556 20 35.5556Z" fill="white"/>
<path id="Vector_2" d="M21.0223 20.4444V11.9444C21.0223 11.6497 20.9052 11.3671 20.6968 11.1588C20.4885 10.9504 20.2058 10.8333 19.9112 10.8333C19.6165 10.8333 19.3339 10.9504 19.1255 11.1588C18.9171 11.3671 18.8 11.6497 18.8 11.9444V21.6333L25.3556 26.0778C25.4764 26.1686 25.6144 26.2338 25.7612 26.2695C25.908 26.3052 26.0606 26.3105 26.2096 26.2852C26.3585 26.2599 26.5008 26.2045 26.6276 26.1223C26.7544 26.0402 26.8631 25.933 26.9471 25.8074C27.0311 25.6818 27.0886 25.5404 27.1161 25.3918C27.1436 25.2432 27.1404 25.0906 27.1069 24.9432C27.0734 24.7959 27.0101 24.657 26.9211 24.5349C26.832 24.4128 26.719 24.3102 26.5889 24.2333L21.0223 20.4444Z" fill="white"/>
<path id="Vector_3" d="M8.88894 19.9333C8.87878 17.9345 9.41127 15.9704 10.4296 14.2504C11.448 12.5304 12.9141 11.119 14.6715 10.1667C16.429 9.2144 18.4119 8.75692 20.409 8.84301C22.406 8.92911 24.3422 9.55556 26.0112 10.6556L26.9556 9.14446C25.3703 8.10601 23.5747 7.43157 21.6978 7.16956C19.8208 6.90756 17.9092 7.0645 16.1001 7.62912C14.291 8.19374 12.6295 9.15202 11.2348 10.4351C9.84005 11.7182 8.74684 13.2943 8.03364 15.0501C7.32045 16.8059 7.00498 18.6979 7.10989 20.5901C7.21481 22.4823 7.7375 24.3278 8.64043 25.9941C9.54336 27.6603 10.8041 29.1058 12.3321 30.2269C13.8601 31.3479 15.6174 32.1166 17.4778 32.4778L17.7778 30.7778C15.2756 30.267 13.0257 28.9099 11.4067 26.9348C9.78778 24.9597 8.89864 22.4872 8.88894 19.9333Z" fill="white"/>
</g>
</g>
<defs>
<clipPath id="clip0_0_1">
<rect width="40" height="40" fill="white"/>
</clipPath>
</defs>
</svg>
