<svg width="40" height="40" viewBox="0 0 40 40" fill="none" xmlns="http://www.w3.org/2000/svg">
<path d="M8.51625 3.00751L6.75625 4.76501L9.375 7.38251L11.1325 5.62501L8.515 3.00751H8.51625ZM31.485 3.00751L28.8663 5.62501L30.625 7.38251L33.2425 4.76626L31.485 3.00751ZM20 3.78751C19.5875 3.79251 19.17 3.81626 18.75 3.86751C18.7375 3.86751 18.725 3.86501 18.7125 3.86751C13.6425 4.44876 9.6075 8.54501 8.90625 13.5925C8.34625 17.655 10.0212 21.3388 12.8125 23.7113C13.9543 24.6857 14.7265 26.0228 15 27.4988V34.9988H17.85C18.285 35.745 19.0788 36.2488 20 36.2488C20.9212 36.2488 21.715 35.745 22.15 34.9988H25V29.9988H25.1175V28.5138C25.1175 26.6813 26.07 24.8338 27.6175 23.3975C29.6875 21.325 31.25 18.3813 31.25 15C31.25 8.82501 26.1675 3.73001 20 3.78751ZM20 6.28751C24.8312 6.22001 28.75 10.175 28.75 15C28.75 17.6175 27.5375 19.9225 25.8587 21.6L25.8988 21.64C24.2305 23.1784 23.1517 25.251 22.8487 27.5H17.3812C17.1062 25.3575 16.1875 23.2838 14.4513 21.7963C12.2425 19.9213 10.9263 17.0963 11.3663 13.9063C11.9125 9.96876 15.1075 6.80251 19.0225 6.36876C19.3457 6.32369 19.6712 6.29698 19.9975 6.28876L20 6.28751ZM2.5 15V17.5H6.25V15H2.5ZM33.75 15V17.5H37.5V15H33.75ZM9.375 25.1175L6.7575 27.7338L8.51625 29.4925L11.1312 26.875L9.375 25.1175ZM30.625 25.1175L28.8675 26.875L31.4837 29.4925L33.2425 27.7338L30.625 25.1175ZM17.5 30H22.5V32.5H17.5V30Z" fill="white"/>
</svg>
