<svg width="20" height="34" viewBox="0 0 20 34" fill="none" xmlns="http://www.w3.org/2000/svg">
<path d="M10 30.3333C11.7681 30.3333 13.4638 29.6309 14.714 28.3807C15.9643 27.1304 16.6667 25.4348 16.6667 23.6666C16.6667 21.8985 15.9643 20.2028 14.714 18.9526C13.4638 17.7024 11.7681 17 10 17C8.23189 17 6.5362 17.7024 5.28596 18.9526C4.03571 20.2028 3.33334 21.8985 3.33334 23.6666C3.33334 25.4348 4.03571 27.1304 5.28596 28.3807C6.5362 29.6309 8.23189 30.3333 10 30.3333ZM3.33334 16.2133V6.99998C3.33334 5.23187 4.03571 3.53618 5.28596 2.28593C6.5362 1.03569 8.23189 0.333313 10 0.333313C11.7681 0.333313 13.4638 1.03569 14.714 2.28593C15.9643 3.53618 16.6667 5.23187 16.6667 6.99998V16.2133C18.1762 17.5635 19.2402 19.3402 19.7179 21.3083C20.1955 23.2764 20.0644 25.3432 19.3417 27.2351C18.6191 29.127 17.339 30.7549 15.6709 31.9034C14.0028 33.0519 12.0253 33.6669 10 33.6669C7.97475 33.6669 5.99723 33.0519 4.32912 31.9034C2.66101 30.7549 1.38093 29.127 0.658279 27.2351C-0.0643754 25.3432 -0.195544 23.2764 0.28213 21.3083C0.759803 19.3402 1.8238 17.5635 3.33334 16.2133ZM6.66667 14.2333C7.73748 13.8563 8.86475 13.6646 10 13.6666C11.1683 13.6666 12.29 13.8666 13.3333 14.235V6.99998C13.3333 6.11592 12.9821 5.26808 12.357 4.64296C11.7319 4.01784 10.8841 3.66665 10 3.66665C9.11595 3.66665 8.2681 4.01784 7.64298 4.64296C7.01786 5.26808 6.66667 6.11592 6.66667 6.99998V14.2333ZM10 27C9.11595 27 8.2681 26.6488 7.64298 26.0237C7.01786 25.3985 6.66667 24.5507 6.66667 23.6666C6.66667 22.7826 7.01786 21.9347 7.64298 21.3096C8.2681 20.6845 9.11595 20.3333 10 20.3333C10.8841 20.3333 11.7319 20.6845 12.357 21.3096C12.9821 21.9347 13.3333 22.7826 13.3333 23.6666C13.3333 24.5507 12.9821 25.3985 12.357 26.0237C11.7319 26.6488 10.8841 27 10 27Z" fill="white"/>
</svg>
